<?xml version="1.0" standalone="no"?>
<!DOCTYPE svg PUBLIC "-//W3C//DTD SVG 20010904//EN"
 "http://www.w3.org/TR/2001/REC-SVG-20010904/DTD/svg10.dtd">
<svg version="1.0" xmlns="http://www.w3.org/2000/svg"
 width="800.000000pt" height="600.000000pt" viewBox="0 0 800.000000 600.000000"
 preserveAspectRatio="xMidYMid meet">

<g transform="translate(0.000000,600.000000) scale(0.100000,-0.100000)"
fill="#000000" stroke="none">
<path d="M3425 4944 c-249 -23 -476 -133 -655 -320 -90 -94 -160 -196 -201
-293 -15 -35 -33 -67 -41 -71 -7 -4 -52 -15 -100 -25 -48 -10 -94 -25 -102
-34 -8 -9 -25 -45 -37 -81 -46 -132 -20 -374 44 -414 12 -8 57 -21 99 -30 84
-19 90 -23 108 -81 39 -123 132 -269 244 -381 127 -127 277 -216 453 -271 l88
-28 685 0 c793 0 743 -6 970 108 118 59 131 68 246 182 136 135 198 225 250
364 l32 86 79 18 c115 27 119 29 142 91 47 125 47 256 0 380 -23 62 -30 68
-109 86 -138 30 -124 20 -179 133 -69 141 -164 263 -270 348 -108 87 -273 170
-406 206 l-100 27 -600 2 c-330 0 -618 0 -640 -2z m68 -828 c71 -29 126 -129
112 -199 -21 -95 -93 -157 -184 -157 -120 0 -203 92 -187 208 17 121 146 196
259 148z m1192 -5 c74 -34 105 -85 105 -172 0 -56 -10 -80 -49 -122 -38 -42
-73 -57 -131 -57 -67 0 -123 29 -157 82 -39 59 -39 147 -1 205 50 75 150 103
233 64z m-435 -392 c0 -37 -27 -104 -57 -139 -85 -99 -225 -114 -327 -36 -39
29 -86 116 -86 158 l0 28 235 0 c158 0 235 -3 235 -11z"/>
<path d="M3781 2739 c-263 -29 -435 -87 -574 -193 -96 -72 -151 -135 -243
-281 -84 -132 -184 -390 -187 -483 -3 -61 27 -85 92 -77 75 10 179 44 300 98
89 39 116 47 119 37 3 -8 28 -60 55 -115 43 -87 63 -113 151 -201 85 -86 114
-108 186 -142 124 -60 194 -73 363 -69 123 2 152 6 215 29 112 40 178 84 277
183 95 94 154 183 182 273 17 52 31 62 62 43 11 -7 12 -13 4 -23 -6 -7 -22
-51 -35 -98 -21 -77 -23 -105 -22 -290 0 -232 10 -287 83 -451 58 -131 122
-222 245 -345 120 -119 209 -181 345 -240 361 -156 797 -108 1107 124 280 209
447 509 469 843 21 321 -86 612 -313 850 -226 238 -502 359 -817 359 -274 0
-555 -107 -742 -283 -18 -17 -34 -29 -37 -26 -2 2 -24 36 -48 74 -83 129 -262
278 -389 324 -63 22 -157 45 -284 67 -109 19 -444 27 -564 13z m2092 -600 c23
-6 37 -15 34 -22 -2 -7 -12 -47 -22 -89 -15 -60 -16 -80 -6 -91 16 -20 79 -31
95 -18 7 6 21 47 31 91 10 45 21 83 24 85 11 6 101 -18 101 -28 0 -5 -9 -45
-21 -89 -11 -44 -18 -87 -15 -94 3 -7 34 -26 68 -42 76 -34 136 -85 154 -129
33 -78 6 -209 -50 -249 -15 -11 -37 -27 -49 -36 l-22 -17 41 -38 c58 -55 80
-118 67 -192 -23 -124 -80 -198 -175 -226 -56 -16 -148 -19 -216 -6 -54 11
-62 0 -88 -111 -13 -57 -22 -78 -33 -78 -22 0 -91 20 -91 26 0 3 10 43 21 90
24 96 21 106 -38 123 -42 12 -56 -5 -78 -99 -10 -41 -20 -78 -24 -82 -5 -6
-89 9 -100 18 -2 2 7 44 19 94 19 79 21 94 9 106 -8 7 -62 26 -121 41 l-106
28 25 61 c25 61 26 62 57 53 46 -13 92 -11 106 6 14 17 149 546 150 586 0 35
-35 65 -93 80 -45 11 -48 14 -42 37 3 13 9 37 12 53 3 16 12 29 20 29 8 0 60
-11 115 -25 123 -32 127 -30 153 85 20 87 21 88 88 69z"/>
<path d="M5843 1778 c-15 -20 -63 -222 -54 -231 15 -15 166 -38 206 -31 55 9
105 60 105 107 0 63 -66 120 -170 147 -25 6 -52 13 -61 16 -9 2 -21 -1 -26 -8z"/>
<path d="M5745 1408 c-2 -7 -17 -66 -33 -130 -22 -87 -27 -120 -18 -127 23
-19 178 -44 240 -38 54 5 65 10 93 41 26 28 33 44 33 78 0 36 -6 47 -43 83
-34 33 -62 47 -128 68 -117 36 -139 40 -144 25z"/>
</g>
</svg>
